<svg id="Layer_1" data-name="Layer 1" xmlns="http://www.w3.org/2000/svg" xmlns:xlink="http://www.w3.org/1999/xlink" width="30" height="30" viewBox="0 0 30 30"><defs><style>.cls-1{fill:#111;}.cls-1,.cls-4{fill-rule:evenodd;}.cls-2{opacity:0.2;}.cls-3{fill:#edeceb;}.cls-4{fill:url(#linear-gradient);}.cls-5{fill:#58595b;}</style><linearGradient id="linear-gradient" x1="15" y1="21" x2="15" y2="9" gradientUnits="userSpaceOnUse"><stop offset="0" stop-color="#fff" stop-opacity="0.2"/><stop offset="1"/></linearGradient></defs><title>nuki-bridge</title><path class="cls-1" d="M4,0H26a4,4,0,0,1,4,4V26a4,4,0,0,1-4,4H4a4,4,0,0,1-4-4V4A4,4,0,0,1,4,0Z"/><g class="cls-2"><path class="cls-3" d="M15,9a6,6,0,1,1-6,6,6,6,0,0,1,6-6m0-1a7,7,0,1,0,7,7,7,7,0,0,0-7-7h0Z"/></g><g class="cls-2"><path class="cls-4" d="M15,9a6,6,0,1,1-6,6A6,6,0,0,1,15,9Z"/></g><path class="cls-5" d="M11,25a0.05,0.05,0,0,1,.06-0.05h0.07L12.29,26h0V25A0.06,0.06,0,0,1,12.35,25H12.7a0.06,0.06,0,0,1,.06.06v2a0.05,0.05,0,0,1-.06.05H12.62l-1.15-1.16h0v1.09a0.06,0.06,0,0,1-.06.06H11.06A0.06,0.06,0,0,1,11,26.94V25Z"/><path class="cls-5" d="M13.6,25A0.06,0.06,0,0,1,13.66,25H14a0.06,0.06,0,0,1,.06.06v1.18a0.36,0.36,0,1,0,.72,0V25A0.06,0.06,0,0,1,14.85,25h0.36a0.06,0.06,0,0,1,.06.06v1.21a0.83,0.83,0,0,1-1.66,0V25Z"/><path class="cls-5" d="M16.12,25A0.07,0.07,0,0,1,16.19,25h0.34a0.07,0.07,0,0,1,.07.07v0.77L17.25,25l0.06,0h0.37a0.07,0.07,0,0,1,.05.11L17,25.91l0.74,1a0.07,0.07,0,0,1-.06.11h-0.4l-0.05,0-0.67-.92v0.87a0.07,0.07,0,0,1-.07.07H16.19a0.07,0.07,0,0,1-.07-0.07V25Z"/><path class="cls-5" d="M18.47,25A0.06,0.06,0,0,1,18.53,25h0.35a0.06,0.06,0,0,1,.06.06v1.93a0.06,0.06,0,0,1-.06.06H18.53a0.06,0.06,0,0,1-.06-0.06V25Z"/><path class="cls-5" d="M18.4,23.76a0.3,0.3,0,0,1,.29-0.3,0.3,0.3,0,1,1,0,.6A0.3,0.3,0,0,1,18.4,23.76Z"/><circle cx="15" cy="4.75" r="0.5"/></svg>